:SAMPLES-PER-SECOND 30
:FULLY-SPECIFIED
:DEGREES
17
root  81.6637 40.418 -6.38812 174.15 -87.0159 -173.249
RightUpLeg  1.77917 -7.51633 -4.67755
RightLeg  2.01391 -3.74761 3.62496
RightFoot  -2.67132 0.095871 -1.56394
RightToes  1.74622e-010 0 -3.6325e-017
Spine  -1.46254 0.00924331 1.45721
Spine1  5.39968 0.333881 -1.68638
HEad  -5.15631 4.65196 0.350527
LeftShoulder1  0.646739 0.0249878 -11.0868
LeftArm  -15.1266 7.92842 -1.7879
LeftForeArm  13.3758 -1.52526 -2.64636
LeftHand  -0.244104 0.0205437 5.32207
RightShoulder  0.431937 -0.873095 9.02523
RightArm  -21.1237 2.2337 0.222511
RightForeArm  2.52961 0.386973 3.06152
RightHand  -1.31994 5.32101 -14.5319
LeftUpLeg  1.9463 4.83249 2.68681
LeftLeg  1.26398 12.6587 -3.67856
LeftFoot  -3.77579 0.0163416 0.168072
LeftToes  -6.36679e-011 4.33698e-011 -8.22343e-012
18
root  81.6488 40.4183 -6.38339 173.406 -87.0294 -172.476
RightUpLeg  1.78725 -7.47667 -4.63137
RightLeg  1.97372 -3.79511 3.61051
RightFoot  -2.64941 0.0930642 -1.5203
RightToes  1.74622e-010 0 -3.6325e-017
Spine  -1.46956 -0.000575139 1.48024
Spine1  5.40546 0.31576 -1.6614
HEad  -5.0544 4.81695 0.278716
LeftShoulder1  0.647584 0.011021 -11.191
LeftArm  -15.2084 7.9827 -1.72823
LeftForeArm  13.3997 -1.64058 -2.61653
LeftHand  -0.244104 0.0205437 5.32207
RightShoulder  0.44594 -0.789987 9.04051
RightArm  -21.3203 2.17152 0.239153
RightForeArm  2.59114 0.347635 2.97261
RightHand  -1.2995 5.09321 -14.61
LeftUpLeg  1.92996 4.84755 2.71723
LeftLeg  1.27035 12.6381 -3.67398
LeftFoot  -3.78871 0.0164803 0.165918
LeftToes  -6.36679e-011 4.33698e-011 -8.22343e-012
19
root  81.6356 40.4189 -6.37728 172.919 -87.0605 -171.936
RightUpLeg  1.76441 -7.45229 -4.60477
RightLeg  1.95033 -3.85168 3.60092
RightFoot  -2.63417 0.0895621 -1.46585
RightToes  1.74622e-010 0 -3.6325e-017
Spine  -1.34623 -0.0268803 1.34074
Spine1  5.24166 0.233746 -1.40638
HEad  -5.0596 5.05028 0.270836
LeftShoulder1  0.639772 0.0898762 -11.3936
LeftArm  -15.4473 8.09004 -1.80619
LeftForeArm  13.6159 -1.89751 -2.53257
LeftHand  -0.244104 0.0205437 5.32207
RightShoulder  0.48245 -0.578361 9.10783
RightArm  -21.5082 2.02724 0.180351
RightForeArm  2.90671 0.403576 2.87194
RightHand  -1.25259 4.7654 -14.5326
LeftUpLeg  1.88903 4.84631 2.72281
LeftLeg  1.25256 12.6208 -3.67343
LeftFoot  -3.77864 0.0118008 0.238641
LeftToes  -6.36679e-011 4.33698e-011 -8.22343e-012
20
root  81.6213 40.4195 -6.36873 172.872 -87.0812 -171.829
RightUpLeg  1.7377 -7.45849 -4.61353
RightLeg  1.92231 -3.88093 3.60719
RightFoot  -2.62367 0.0887957 -1.45394
RightToes  1.74622e-010 0 -3.6325e-017
Spine  -1.27385 -0.053077 1.16294
Spine1  5.17942 0.141852 -1.09871
HEad  -5.18363 5.08309 0.192414
LeftShoulder1  0.611243 0.285754 -11.6571
LeftArm  -16.0783 8.19285 -2.24338
LeftForeArm  13.9227 -2.35384 -2.329
LeftHand  -0.244104 0.0205437 5.32207
RightShoulder  0.515151 -0.407404 9.27254
RightArm  -21.7108 1.85928 0.249563
RightForeArm  2.70071 0.752472 2.84867
RightHand  -1.23113 4.52049 -14.63
LeftUpLeg  1.8426 4.82476 2.6965
LeftLeg  1.23708 12.6392 -3.66691
LeftFoot  -3.77011 0.00687368 0.315212
LeftToes  -6.36679e-011 4.33698e-011 -8.22343e-012
21
root  81.6085 40.42 -6.35918 173.27 -87.0775 -172.174
RightUpLeg  1.69989 -7.48058 -4.64602
RightLeg  1.91316 -3.86428 3.6118
RightFoot  -2.6219 0.0892084 -1.46035
RightToes  1.74622e-010 0 -3.6325e-017
Spine  -1.28855 -0.0719395 1.14275
Spine1  5.23813 0.109676 -1.03841
HEad  -5.23178 4.92251 0.0517479
LeftShoulder1  0.594834 0.421058 -11.977
LeftArm  -17.0426 8.46811 -3.04145
LeftForeArm  14.124 -3.33293 -2.06868
LeftHand  -0.244104 0.0205437 5.32207
RightShoulder  0.534091 -0.343148 9.56585
RightArm  -22.0563 1.49989 0.864317
RightForeArm  1.08359 1.58187 2.93483
RightHand  -1.28992 4.43173 -15.434
LeftUpLeg  1.81301 4.78889 2.64815
LeftLeg  1.21068 12.692 -3.66152
LeftFoot  -3.76342 0.00647118 0.321468
LeftToes  -6.36679e-011 4.33698e-011 -8.22343e-012
